{
  "source": "C:\\Users\\Peter\\Desktop\\stuff\\MIUN\\quantitative_research\\video_compression\\videos\\BVI-HD\\BVI-HD_CDVL_videos\\ORIG\\DiverFishAndRock_1920x1080_30fps.mp4",
  "output": "C:\\Users\\Peter\\Desktop\\stuff\\MIUN\\quantitative_research\\video_compression\\compressed_videos\\BVI-HD\\vp9\\1.5\\DiverFishAndRock_1920x1080_30fps_vp9.webm",
  "codec": "vp9",
  "ok": "Input #0, mov,mp4,m4a,3gp,3g2,mj2, from 'C:\\Users\\Peter\\Desktop\\stuff\\MIUN\\quantitative_research\\video_compression\\videos\\BVI-HD\\BVI-HD_CDVL_videos\\ORIG\\DiverFishAndRock_1920x1080_30fps.mp4':\n  Metadata:\n    major_brand     : isom\n    minor_version   : 512\n    compatible_brands: isomiso2avc1mp41\n    encoder         : Lavf54.28.101\n  Duration: 00:00:05.00, start: 0.000000, bitrate: 228854 kb/s\n  Stream #0:0[0x1](und): Video: h264 (High 4:4:4 Predictive) (avc1 / 0x31637661), yuv420p(progressive), 1920x1080, 228851 kb/s, 30 fps, 30 tbr, 30 tbn (default)\n    Metadata:\n      handler_name    : VideoHandler\n      vendor_id       : [0][0][0][0]\n[out#0/webm @ 0000022c48c40c00] Codec AVOption b:a (set bitrate (in bits/s)) has not been used for any stream. The most likely reason is either wrong type (e.g. a video option with no video streams) or that it is a private option of some decoder which was not actually used for any stream.\nStream mapping:\n  Stream #0:0 -> #0:0 (h264 (native) -> vp9 (libvpx-vp9))\nPress [q] to stop, [?] for help\n[libvpx-vp9 @ 0000022c48c3c300] v1.15.2-100-g40561f514\nOutput #0, webm, to 'C:\\Users\\Peter\\Desktop\\stuff\\MIUN\\quantitative_research\\video_compression\\compressed_videos\\BVI-HD\\vp9\\1.5\\DiverFishAndRock_1920x1080_30fps_vp9.webm':\n  Metadata:\n    major_brand     : isom\n    minor_version   : 512\n    compatible_brands: isomiso2avc1mp41\n    encoder         : Lavf62.3.100\n  Stream #0:0(und): Video: vp9, yuv420p(tv, progressive), 1920x1080, q=2-31, 1500 kb/s, 30 fps, 1k tbn (default)\n    Metadata:\n      encoder         : Lavc62.11.100 libvpx-vp9\n      handler_name    : VideoHandler\n      vendor_id       : [0][0][0][0]\n    Side data:\n      cpb: bitrate max/min/avg: 0/0/0 buffer size: 1500000 vbv_delay: N/A\nframe=    0 fps=0.0 q=0.0 size=       0KiB time=N/A bitrate=N/A speed=N/A elapsed=0:00:00.53    \nframe=    7 fps=6.3 q=56.0 size=       1KiB time=00:00:00.23 bitrate=  21.7kbits/s speed=0.211x elapsed=0:00:01.10    \nframe=   13 fps=8.0 q=53.0 size=       1KiB time=00:00:00.43 bitrate=  11.7kbits/s speed=0.265x elapsed=0:00:01.63    \nframe=   19 fps=8.8 q=52.0 size=       1KiB time=00:00:00.63 bitrate=   8.0kbits/s speed=0.292x elapsed=0:00:02.17    \nframe=   25 fps=9.2 q=51.0 size=       1KiB time=00:00:00.83 bitrate=   6.1kbits/s speed=0.308x elapsed=0:00:02.70    \nframe=   30 fps=9.2 q=53.0 size=       1KiB time=00:00:01.00 bitrate=   5.1kbits/s speed=0.307x elapsed=0:00:03.25    \nframe=   36 fps=9.5 q=52.0 size=       1KiB time=00:00:01.20 bitrate=   4.2kbits/s speed=0.318x elapsed=0:00:03.77    \nframe=   40 fps=9.3 q=52.0 size=       1KiB time=00:00:01.33 bitrate=   3.8kbits/s speed=0.309x elapsed=0:00:04.30    \nframe=   46 fps=9.5 q=49.0 size=       1KiB time=00:00:01.53 bitrate=   3.3kbits/s speed=0.317x elapsed=0:00:04.83    \nframe=   50 fps=9.4 q=50.0 size=       1KiB time=00:00:01.66 bitrate=   3.0kbits/s speed=0.312x elapsed=0:00:05.34    \nframe=   56 fps=9.5 q=49.0 size=       1KiB time=00:00:01.83 bitrate=   2.8kbits/s speed=0.312x elapsed=0:00:05.88    \nframe=   60 fps=9.3 q=49.0 size=       1KiB time=00:00:02.00 bitrate=   2.5kbits/s speed=0.309x elapsed=0:00:06.46    \nframe=   64 fps=9.1 q=49.0 size=       1KiB time=00:00:02.13 bitrate=   2.4kbits/s speed=0.303x elapsed=0:00:07.03    \nframe=   67 fps=8.8 q=49.0 size=       1KiB time=00:00:02.23 bitrate=   2.3kbits/s speed=0.293x elapsed=0:00:07.62    \nframe=   70 fps=8.5 q=50.0 size=       1KiB time=00:00:02.33 bitrate=   2.2kbits/s speed=0.283x elapsed=0:00:08.25    \nframe=   72 fps=8.1 q=49.0 size=       1KiB time=00:00:02.40 bitrate=   2.1kbits/s speed=0.27x elapsed=0:00:08.89    \nframe=   76 fps=8.0 q=49.0 size=       1KiB time=00:00:02.53 bitrate=   2.0kbits/s speed=0.268x elapsed=0:00:09.46    \nframe=   80 fps=8.0 q=50.0 size=       1KiB time=00:00:02.66 bitrate=   1.9kbits/s speed=0.267x elapsed=0:00:09.99    \nframe=   85 fps=8.1 q=51.0 size=       1KiB time=00:00:02.83 bitrate=   1.8kbits/s speed=0.268x elapsed=0:00:10.55    \nframe=   89 fps=8.0 q=51.0 size=       1KiB time=00:00:02.96 bitrate=   1.7kbits/s speed=0.267x elapsed=0:00:11.09    \nframe=   92 fps=7.9 q=52.0 size=       1KiB time=00:00:03.06 bitrate=   1.7kbits/s speed=0.263x elapsed=0:00:11.66    \nframe=   97 fps=8.0 q=51.0 size=       1KiB time=00:00:03.23 bitrate=   1.6kbits/s speed=0.265x elapsed=0:00:12.19    \nframe=  100 fps=7.9 q=53.0 size=       1KiB time=00:00:03.33 bitrate=   1.5kbits/s speed=0.262x elapsed=0:00:12.70    \nframe=  104 fps=7.8 q=53.0 size=       1KiB time=00:00:03.46 bitrate=   1.5kbits/s speed=0.261x elapsed=0:00:13.26    \nframe=  108 fps=7.8 q=54.0 size=       1KiB time=00:00:03.60 bitrate=   1.4kbits/s speed=0.26x elapsed=0:00:13.82    \nframe=  112 fps=7.8 q=53.0 size=       1KiB time=00:00:03.73 bitrate=   1.4kbits/s speed=0.26x elapsed=0:00:14.37    \nframe=  116 fps=7.8 q=53.0 size=       1KiB time=00:00:03.86 bitrate=   1.3kbits/s speed=0.26x elapsed=0:00:14.89    \nframe=  120 fps=7.8 q=53.0 size=       1KiB time=00:00:04.00 bitrate=   1.3kbits/s speed=0.259x elapsed=0:00:15.43    \nframe=  123 fps=7.7 q=51.0 size=       1KiB time=00:00:04.10 bitrate=   1.2kbits/s speed=0.256x elapsed=0:00:16.01    \nframe=  126 fps=7.6 q=51.0 size=       1KiB time=00:00:04.20 bitrate=   1.2kbits/s speed=0.254x elapsed=0:00:16.56    \nframe=  126 fps=7.4 q=51.0 size=       1KiB time=00:00:04.20 bitrate=   1.2kbits/s speed=0.246x elapsed=0:00:17.08    \nframe=  126 fps=7.2 q=51.0 size=       1KiB time=00:00:04.20 bitrate=   1.2kbits/s speed=0.239x elapsed=0:00:17.59    \nframe=  126 fps=7.0 q=51.0 size=       1KiB time=00:00:04.20 bitrate=   1.2kbits/s speed=0.232x elapsed=0:00:18.11    \nframe=  126 fps=6.7 q=51.0 size=       1KiB time=00:00:04.20 bitrate=   1.2kbits/s speed=0.225x elapsed=0:00:18.68    \nframe=  126 fps=6.5 q=51.0 size=       1KiB time=00:00:04.20 bitrate=   1.2kbits/s speed=0.218x elapsed=0:00:19.23    \nframe=  126 fps=6.4 q=51.0 size=       1KiB time=00:00:04.20 bitrate=   1.2kbits/s speed=0.212x elapsed=0:00:19.78    \n[out#0/webm @ 0000022c48c40c00] video:866KiB audio:0KiB subtitle:0KiB other streams:0KiB global headers:0KiB muxing overhead: 0.198644%\nframe=  150 fps=7.6 q=46.0 Lsize=     867KiB time=00:00:05.00 bitrate=1421.2kbits/s speed=0.252x elapsed=0:00:19.84    \n",
  "seconds": 20.086824655532837,
  "probe_out": {}
}